<?xml version="1.0" encoding="utf-8"?>
<!-- Generator: Adobe Illustrator 21.1.0, SVG Export Plug-In . SVG Version: 6.00 Build 0)  -->
<svg version="1.1" xmlns="http://www.w3.org/2000/svg" xmlns:xlink="http://www.w3.org/1999/xlink" x="0px" y="0px"
	 viewBox="0 0 500 500" style="enable-background:new 0 0 500 500;" xml:space="preserve">
<style type="text/css">
	.st0{fill:none;stroke:#DDDDDD;stroke-width:4;stroke-miterlimit:10;}
	.st1{fill:#B7B7B7;}
	.st2{font-family:'ArialMT';}
	.st3{font-size:7px;}
	.st4{font-family:'Arial-BoldMT';}
	.st5{font-size:8px;}
	.st6{fill:#5DC1E3;}
</style>
<g id="Layer_1">
	
		<image style="display:none;overflow:visible;opacity:0.23;" width="437" height="306" xlink:href="Снимок.PNG"  transform="matrix(0.75 0 0 0.75 86.0938 136.1875)">
	</image>
	<path class="st0" d="M124.3,155c41.9-8.6,83.3-11.3,119.7-11.1c69.1,0.4,119.7,11.1,119.7,11.1"/>
	<text transform="matrix(1 0 0 1 234.6665 156)" class="st1 st2 st3">Экран</text>
	<text transform="matrix(1 0 0 1 107.75 182.0313)" class="st1 st4 st5">1</text>
	<text transform="matrix(1 0 0 1 107.7813 199.9063)" class="st1 st4 st5">2</text>
	<text transform="matrix(1 0 0 1 107.8125 218)" class="st1 st4 st5">3</text>
	<text transform="matrix(1 0 0 1 107.8125 236.0313)" class="st1 st4 st5">4</text>
	<text transform="matrix(1 0 0 1 107.7813 254.125)" class="st1 st4 st5">5</text>
	<text transform="matrix(1 0 0 1 107.8125 272.0938)" class="st1 st4 st5">6</text>
	<text transform="matrix(1 0 0 1 107.75 290.3125)" class="st1 st4 st5">7</text>
	<text transform="matrix(1 0 0 1 107.75 308.4063)" class="st1 st4 st5">8</text>
	<text transform="matrix(1 0 0 1 107.75 326.2188)" class="st1 st4 st5">9</text>
	<text transform="matrix(1 0 0 1 107.625 344.25)" class="st1 st4 st5">10</text>
	<text transform="matrix(1 0 0 1 381.75 182.0313)" class="st1 st4 st5">1</text>
	<text transform="matrix(1 0 0 1 381.7813 199.9063)" class="st1 st4 st5">2</text>
	<text transform="matrix(1 0 0 1 381.8125 218)" class="st1 st4 st5">3</text>
	<text transform="matrix(1 0 0 1 381.8125 236.0313)" class="st1 st4 st5">4</text>
	<text transform="matrix(1 0 0 1 381.7813 254.125)" class="st1 st4 st5">5</text>
	<text transform="matrix(1 0 0 1 381.8125 272.0938)" class="st1 st4 st5">6</text>
	<text transform="matrix(1 0 0 1 381.75 290.3125)" class="st1 st4 st5">7</text>
	<text transform="matrix(1 0 0 1 381.75 308.4063)" class="st1 st4 st5">8</text>
	<text transform="matrix(1 0 0 1 381.75 326.2188)" class="st1 st4 st5">9</text>
	<text transform="matrix(1 0 0 1 377.5208 344.25)" class="st1 st4 st5">10</text>
</g>
<g id="Layer_2">
	<circle data-id="0" class="st6" cx="175.1" cy="179.6" r="5.1"/>
	<circle data-id="1" class="st6" cx="189.1" cy="179.6" r="5.1"/>
	<circle data-id="2" class="st6" cx="203.1" cy="179.6" r="5.1"/>
	<circle data-id="3" class="st6" cx="217.1" cy="179.6" r="5.1"/>
	<circle data-id="4" class="st6" cx="230.1" cy="179.6" r="5.1"/>
	<circle data-id="5" class="st6" cx="244.1" cy="179.6" r="5.1"/>
	<circle data-id="6" class="st6" cx="258.1" cy="179.6" r="5.1"/>
	<circle data-id="7" class="st6" cx="272.1" cy="179.6" r="5.1"/>
	<circle data-id="8" class="st6" cx="286.1" cy="179.6" r="5.1"/>
	<circle data-id="9" class="st6" cx="299.1" cy="179.6" r="5.1"/>
	<circle data-id="10" class="st6" cx="313.1" cy="179.6" r="5.1"/>
	<circle data-id="11" class="st6" cx="327.1" cy="179.6" r="5.1"/>
	<circle data-id="12" class="st6" cx="340.1" cy="179.6" r="5.1"/>
	<circle data-id="13" class="st6" cx="354.1" cy="179.6" r="5.1"/>
	<circle data-id="14" class="st6" cx="175.1" cy="197.6" r="5.1"/>
	<circle data-id="15" class="st6" cx="189.1" cy="197.6" r="5.1"/>
	<circle data-id="16" class="st6" cx="203.1" cy="197.6" r="5.1"/>
	<circle data-id="17" class="st6" cx="217.1" cy="197.6" r="5.1"/>
	<circle data-id="18" class="st6" cx="230.1" cy="197.6" r="5.1"/>
	<circle data-id="19" class="st6" cx="244.1" cy="197.6" r="5.1"/>
	<circle data-id="20" class="st6" cx="258.1" cy="197.6" r="5.1"/>
	<circle data-id="21" class="st6" cx="272.1" cy="197.6" r="5.1"/>
	<circle data-id="22" class="st6" cx="286.1" cy="197.6" r="5.1"/>
	<circle data-id="23" class="st6" cx="299.1" cy="197.6" r="5.1"/>
	<circle data-id="24" class="st6" cx="313.1" cy="197.6" r="5.1"/>
	<circle data-id="25" class="st6" cx="327.1" cy="197.6" r="5.1"/>
	<circle data-id="26" class="st6" cx="340.1" cy="197.6" r="5.1"/>
	<circle data-id="27" class="st6" cx="354.1" cy="197.6" r="5.1"/>
	<circle data-id="28" class="st6" cx="175.1" cy="215.6" r="5.1"/>
	<circle data-id="29" class="st6" cx="189.1" cy="215.6" r="5.1"/>
	<circle data-id="30" class="st6" cx="203.1" cy="215.6" r="5.1"/>
	<circle data-id="31" class="st6" cx="217.1" cy="215.6" r="5.1"/>
	<circle data-id="32" class="st6" cx="230.1" cy="215.6" r="5.1"/>
	<circle data-id="33" class="st6" cx="244.1" cy="215.6" r="5.1"/>
	<circle data-id="34" class="st6" cx="258.1" cy="215.6" r="5.1"/>
	<circle data-id="35" class="st6" cx="272.1" cy="215.6" r="5.1"/>
	<circle data-id="36" class="st6" cx="286.1" cy="215.6" r="5.1"/>
	<circle data-id="37" class="st6" cx="299.1" cy="215.6" r="5.1"/>
	<circle data-id="38" class="st6" cx="313.1" cy="215.6" r="5.1"/>
	<circle data-id="39" class="st6" cx="327.1" cy="215.6" r="5.1"/>
	<circle data-id="40" class="st6" cx="340.1" cy="215.6" r="5.1"/>
	<circle data-id="41" class="st6" cx="354.1" cy="215.6" r="5.1"/>
	<circle data-id="42" class="st6" cx="217.1" cy="233.6" r="5.1"/>
	<circle data-id="43" class="st6" cx="230.1" cy="233.6" r="5.1"/>
	<circle data-id="44" class="st6" cx="244.1" cy="233.6" r="5.1"/>
	<circle data-id="45" class="st6" cx="258.1" cy="233.6" r="5.1"/>
	<circle data-id="46" class="st6" cx="272.1" cy="233.6" r="5.1"/>
	<circle data-id="47" class="st6" cx="286.1" cy="233.6" r="5.1"/>
	<circle data-id="48" class="st6" cx="299.1" cy="233.6" r="5.1"/>
	<circle data-id="49" class="st6" cx="313.1" cy="233.6" r="5.1"/>
	<circle data-id="50" class="st6" cx="327.1" cy="233.6" r="5.1"/>
	<circle data-id="51" class="st6" cx="340.1" cy="233.6" r="5.1"/>
	<circle data-id="52" class="st6" cx="354.1" cy="233.6" r="5.1"/>
	<circle data-id="53" class="st6" cx="217.1" cy="251.6" r="5.1"/>
	<circle data-id="54" class="st6" cx="230.1" cy="251.6" r="5.1"/>
	<circle data-id="55" class="st6" cx="244.1" cy="251.6" r="5.1"/>
	<circle data-id="56" class="st6" cx="258.1" cy="251.6" r="5.1"/>
	<circle data-id="57" class="st6" cx="272.1" cy="251.6" r="5.1"/>
	<circle data-id="58" class="st6" cx="286.1" cy="251.6" r="5.1"/>
	<circle data-id="59" class="st6" cx="299.1" cy="251.6" r="5.1"/>
	<circle data-id="60" class="st6" cx="313.1" cy="251.6" r="5.1"/>
	<circle data-id="61" class="st6" cx="327.1" cy="251.6" r="5.1"/>
	<circle data-id="62" class="st6" cx="340.1" cy="251.6" r="5.1"/>
	<circle data-id="63" class="st6" cx="354.1" cy="251.6" r="5.1"/>
	<circle data-id="64" class="st6" cx="217.1" cy="269.6" r="5.1"/>
	<circle data-id="65" class="st6" cx="230.1" cy="269.6" r="5.1"/>
	<circle data-id="66" class="st6" cx="244.1" cy="269.6" r="5.1"/>
	<circle data-id="67" class="st6" cx="258.1" cy="269.6" r="5.1"/>
	<circle data-id="68" class="st6" cx="272.1" cy="269.6" r="5.1"/>
	<circle data-id="69" class="st6" cx="286.1" cy="269.6" r="5.1"/>
	<circle data-id="70" class="st6" cx="299.1" cy="269.6" r="5.1"/>
	<circle data-id="71" class="st6" cx="313.1" cy="269.6" r="5.1"/>
	<circle data-id="72" class="st6" cx="327.1" cy="269.6" r="5.1"/>
	<circle data-id="73" class="st6" cx="340.1" cy="269.6" r="5.1"/>
	<circle data-id="74" class="st6" cx="354.1" cy="269.6" r="5.1"/>
	<circle data-id="75" class="st6" cx="217.1" cy="287.6" r="5.1"/>
	<circle data-id="76" class="st6" cx="230.1" cy="287.6" r="5.1"/>
	<circle data-id="77" class="st6" cx="244.1" cy="287.6" r="5.1"/>
	<circle data-id="78" class="st6" cx="258.1" cy="287.6" r="5.1"/>
	<circle data-id="79" class="st6" cx="272.1" cy="287.6" r="5.1"/>
	<circle data-id="80" class="st6" cx="286.1" cy="287.6" r="5.1"/>
	<circle data-id="81" class="st6" cx="299.1" cy="287.6" r="5.1"/>
	<circle data-id="82" class="st6" cx="313.1" cy="287.6" r="5.1"/>
	<circle data-id="83" class="st6" cx="327.1" cy="287.6" r="5.1"/>
	<circle data-id="84" class="st6" cx="340.1" cy="287.6" r="5.1"/>
	<circle data-id="85" class="st6" cx="354.1" cy="287.6" r="5.1"/>
	<circle data-id="86" class="st6" cx="217.1" cy="305.6" r="5.1"/>
	<circle data-id="87" class="st6" cx="230.1" cy="305.6" r="5.1"/>
	<circle data-id="88" class="st6" cx="244.1" cy="305.6" r="5.1"/>
	<circle data-id="89" class="st6" cx="258.1" cy="305.6" r="5.1"/>
	<circle data-id="90" class="st6" cx="272.1" cy="305.6" r="5.1"/>
	<circle data-id="91" class="st6" cx="286.1" cy="305.6" r="5.1"/>
	<circle data-id="92" class="st6" cx="299.1" cy="305.6" r="5.1"/>
	<circle data-id="93" class="st6" cx="313.1" cy="305.6" r="5.1"/>
	<circle data-id="94" class="st6" cx="327.1" cy="305.6" r="5.1"/>
	<circle data-id="95" class="st6" cx="340.1" cy="305.6" r="5.1"/>
	<circle data-id="96" class="st6" cx="354.1" cy="305.6" r="5.1"/>
	<circle data-id="97" class="st6" cx="217.1" cy="323.6" r="5.1"/>
	<circle data-id="98" class="st6" cx="230.1" cy="323.6" r="5.1"/>
	<circle data-id="99" class="st6" cx="244.1" cy="323.6" r="5.1"/>
	<circle data-id="100" class="st6" cx="258.1" cy="323.6" r="5.1"/>
	<circle data-id="101" class="st6" cx="272.1" cy="323.6" r="5.1"/>
	<circle data-id="102" class="st6" cx="286.1" cy="323.6" r="5.1"/>
	<circle data-id="103" class="st6" cx="299.1" cy="323.6" r="5.1"/>
	<circle data-id="104" class="st6" cx="313.1" cy="323.6" r="5.1"/>
	<circle data-id="105" class="st6" cx="327.1" cy="323.6" r="5.1"/>
	<circle data-id="106" class="st6" cx="340.1" cy="323.6" r="5.1"/>
	<circle data-id="107" class="st6" cx="354.1" cy="323.6" r="5.1"/>
	<circle data-id="108" class="st6" cx="217.1" cy="341.6" r="5.1"/>
	<circle data-id="109" class="st6" cx="230.1" cy="341.6" r="5.1"/>
	<circle data-id="110" class="st6" cx="244.1" cy="341.6" r="5.1"/>
	<circle data-id="111" class="st6" cx="258.1" cy="341.6" r="5.1"/>
	<circle data-id="112" class="st6" cx="272.1" cy="341.6" r="5.1"/>
	<circle data-id="113" class="st6" cx="286.1" cy="341.6" r="5.1"/>
	<circle data-id="114" class="st6" cx="133.1" cy="341.6" r="5.1"/>
	<circle data-id="115" class="st6" cx="147.1" cy="341.6" r="5.1"/>
	<circle data-id="116" class="st6" cx="161.1" cy="341.6" r="5.1"/>
	<circle data-id="117" class="st6" cx="134.1" cy="323.6" r="5.1"/>
	<circle data-id="118" class="st6" cx="148.1" cy="323.6" r="5.1"/>
	<circle data-id="119" class="st6" cx="162.1" cy="323.6" r="5.1"/>
	<circle data-id="120" class="st6" cx="133.1" cy="305.6" r="5.1"/>
	<circle data-id="121" class="st6" cx="147.1" cy="305.6" r="5.1"/>
	<circle data-id="122" class="st6" cx="161.1" cy="305.6" r="5.1"/>
	<circle data-id="123" class="st6" cx="175.1" cy="341.6" r="5.1"/>
	<circle data-id="124" class="st6" cx="189.1" cy="341.6" r="5.1"/>
	<circle data-id="125" class="st6" cx="202.1" cy="341.6" r="5.1"/>
	<circle data-id="126" class="st6" cx="299.1" cy="341.6" r="5.1"/>
	<circle data-id="127" class="st6" cx="313.1" cy="341.6" r="5.1"/>
	<circle data-id="128" class="st6" cx="327.1" cy="341.6" r="5.1"/>
	<circle data-id="129" class="st6" cx="340.1" cy="341.6" r="5.1"/>
	<circle data-id="130" class="st6" cx="354.1" cy="341.6" r="5.1"/>
</g>
</svg>
